<?xml version="1.0" encoding="utf-8"?>
<!-- Generator: Adobe Illustrator 21.1.0, SVG Export Plug-In . SVG Version: 6.00 Build 0)  -->
<svg version="1.1" id="Capa_1" xmlns="http://www.w3.org/2000/svg" xmlns:xlink="http://www.w3.org/1999/xlink" x="0px" y="0px"
	 viewBox="0 0 53.7 41.3" style="enable-background:new 0 0 53.7 41.3;" xml:space="preserve">
<path id="XMLID_267_" d="M6.1,29.1v4.3c0,0.5-0.4,0.9-0.9,0.9H0.9c-0.5,0-0.9-0.4-0.9-0.9v-4.3c0-0.5,0.4-0.9,0.9-0.9h4.3
	C5.7,28.2,6.1,28.6,6.1,29.1z M5.2,21.1H0.9C0.4,21.1,0,21.5,0,22v4.3c0,0.5,0.4,0.9,0.9,0.9h4.3c0.5,0,0.9-0.4,0.9-0.9V22
	C6.1,21.5,5.7,21.1,5.2,21.1z M5.2,14.1H0.9C0.4,14.1,0,14.5,0,15v4.3c0,0.5,0.4,0.9,0.9,0.9h4.3c0.5,0,0.9-0.4,0.9-0.9V15
	C6.1,14.5,5.7,14.1,5.2,14.1z M5.2,7H0.9C0.4,7,0,7.4,0,7.9v4.3c0,0.5,0.4,0.9,0.9,0.9h4.3c0.5,0,0.9-0.4,0.9-0.9V7.9
	C6.1,7.4,5.7,7,5.2,7z M5.2,0H0.9C0.4,0,0,0.4,0,0.9v4.3c0,0.5,0.4,0.9,0.9,0.9h4.3c0.5,0,0.9-0.4,0.9-0.9V0.9C6.1,0.4,5.7,0,5.2,0z
	 M14.7,28.2h-4.3c-0.5,0-0.9,0.4-0.9,0.9v4.3c0,0.5,0.4,0.9,0.9,0.9h4.3c0.5,0,0.9-0.4,0.9-0.9v-4.3C15.6,28.6,15.2,28.2,14.7,28.2z
	 M14.7,21.1h-4.3c-0.5,0-0.9,0.4-0.9,0.9v4.3c0,0.5,0.4,0.9,0.9,0.9h4.3c0.5,0,0.9-0.4,0.9-0.9V22C15.6,21.5,15.2,21.1,14.7,21.1z
	 M14.7,14.1h-4.3c-0.5,0-0.9,0.4-0.9,0.9v4.3c0,0.5,0.4,0.9,0.9,0.9h4.3c0.5,0,0.9-0.4,0.9-0.9V15C15.6,14.5,15.2,14.1,14.7,14.1z
	 M14.7,7h-4.3C9.9,7,9.5,7.4,9.5,7.9v4.3c0,0.5,0.4,0.9,0.9,0.9h4.3c0.5,0,0.9-0.4,0.9-0.9V7.9C15.6,7.4,15.2,7,14.7,7z M24.2,28.2
	h-4.3c-0.5,0-0.9,0.4-0.9,0.9v4.3c0,0.5,0.4,0.9,0.9,0.9h4.3c0.5,0,0.9-0.4,0.9-0.9v-4.3C25.1,28.6,24.7,28.2,24.2,28.2z M24.2,21.1
	h-4.3c-0.5,0-0.9,0.4-0.9,0.9v4.3c0,0.5,0.4,0.9,0.9,0.9h4.3c0.5,0,0.9-0.4,0.9-0.9V22C25.1,21.5,24.7,21.1,24.2,21.1z M33.7,28.2
	h-4.3c-0.5,0-0.9,0.4-0.9,0.9v4.3c0,0.5,0.4,0.9,0.9,0.9h4.3c0.5,0,0.9-0.4,0.9-0.9v-4.3C34.6,28.6,34.2,28.2,33.7,28.2z M33.7,21.1
	h-4.3c-0.5,0-0.9,0.4-0.9,0.9v4.3c0,0.5,0.4,0.9,0.9,0.9h4.3c0.5,0,0.9-0.4,0.9-0.9V22C34.6,21.5,34.2,21.1,33.7,21.1z M33.7,14.1
	h-4.3c-0.5,0-0.9,0.4-0.9,0.9v4.3c0,0.5,0.4,0.9,0.9,0.9h4.3c0.5,0,0.9-0.4,0.9-0.9V15C34.6,14.5,34.2,14.1,33.7,14.1z M43.2,28.2
	H39c-0.5,0-0.9,0.4-0.9,0.9v4.3c0,0.5,0.4,0.9,0.9,0.9h4.3c0.5,0,0.9-0.4,0.9-0.9v-4.3C44.2,28.6,43.7,28.2,43.2,28.2z M43.2,21.1
	H39c-0.5,0-0.9,0.4-0.9,0.9v4.3c0,0.5,0.4,0.9,0.9,0.9h4.3c0.5,0,0.9-0.4,0.9-0.9V22C44.2,21.5,43.7,21.1,43.2,21.1z M43.2,14.1H39
	c-0.5,0-0.9,0.4-0.9,0.9v4.3c0,0.5,0.4,0.9,0.9,0.9h4.3c0.5,0,0.9-0.4,0.9-0.9V15C44.2,14.5,43.7,14.1,43.2,14.1z M43.2,7H39
	c-0.5,0-0.9,0.4-0.9,0.9v4.3c0,0.5,0.4,0.9,0.9,0.9h4.3c0.5,0,0.9-0.4,0.9-0.9V7.9C44.2,7.4,43.7,7,43.2,7z M43.2,0H39
	c-0.5,0-0.9,0.4-0.9,0.9v4.3c0,0.5,0.4,0.9,0.9,0.9h4.3c0.5,0,0.9-0.4,0.9-0.9V0.9C44.2,0.4,43.7,0,43.2,0z M52.8,28.2h-4.3
	c-0.5,0-0.9,0.4-0.9,0.9v4.3c0,0.5,0.4,0.9,0.9,0.9h4.3c0.5,0,0.9-0.4,0.9-0.9v-4.3C53.7,28.6,53.3,28.2,52.8,28.2z M6.1,36.2v4.3
	c0,0.5-0.4,0.9-0.9,0.9H0.9c-0.5,0-0.9-0.4-0.9-0.9v-4.3c0-0.5,0.4-0.9,0.9-0.9h4.3C5.7,35.3,6.1,35.7,6.1,36.2z M14.7,35.3h-4.3
	c-0.5,0-0.9,0.4-0.9,0.9v4.3c0,0.5,0.4,0.9,0.9,0.9h4.3c0.5,0,0.9-0.4,0.9-0.9v-4.3C15.6,35.7,15.2,35.3,14.7,35.3z M24.2,35.3h-4.3
	c-0.5,0-0.9,0.4-0.9,0.9v4.3c0,0.5,0.4,0.9,0.9,0.9h4.3c0.5,0,0.9-0.4,0.9-0.9v-4.3C25.1,35.7,24.7,35.3,24.2,35.3z M33.7,35.3h-4.3
	c-0.5,0-0.9,0.4-0.9,0.9v4.3c0,0.5,0.4,0.9,0.9,0.9h4.3c0.5,0,0.9-0.4,0.9-0.9v-4.3C34.6,35.7,34.2,35.3,33.7,35.3z M43.2,35.3H39
	c-0.5,0-0.9,0.4-0.9,0.9v4.3c0,0.5,0.4,0.9,0.9,0.9h4.3c0.5,0,0.9-0.4,0.9-0.9v-4.3C44.2,35.7,43.7,35.3,43.2,35.3z M52.8,35.3h-4.3
	c-0.5,0-0.9,0.4-0.9,0.9v4.3c0,0.5,0.4,0.9,0.9,0.9h4.3c0.5,0,0.9-0.4,0.9-0.9v-4.3C53.7,35.7,53.3,35.3,52.8,35.3z M52.8,21.1h-4.3
	c-0.5,0-0.9,0.4-0.9,0.9v4.3c0,0.5,0.4,0.9,0.9,0.9h4.3c0.5,0,0.9-0.4,0.9-0.9V22C53.7,21.5,53.3,21.1,52.8,21.1z"/>
</svg>
