<?xml version="1.0" encoding="utf-8"?>
<!-- Generator: Adobe Illustrator 21.1.0, SVG Export Plug-In . SVG Version: 6.00 Build 0)  -->
<svg version="1.1" id="Layer_1" xmlns="http://www.w3.org/2000/svg" xmlns:xlink="http://www.w3.org/1999/xlink" x="0px" y="0px"
	 viewBox="0 0 68.5 90" style="enable-background:new 0 0 68.5 90;" xml:space="preserve">
<path d="M68.5,58.3c0.4-3.1-1.6-4.2-3.1-4.4c-1.5-0.2-1.9,0.3-1.9,0.3c-3.7,6.2-10.5,4.1-12.6,3.2c-2.3-6-3.5-15.2-4.2-22.4
	c2.8-0.3,8.9-0.3,10.9,6.1c0,0,0.3,0.5,1.8,0.7s3.7-0.5,4-3.6c0.1-1.2-0.9-2-0.8-3.1c0.1-1.2,1.3-1.7,1.4-2.9
	c0.3-3.1-1.8-4.2-3.3-4.3c-1.5-0.1-1.9,0.3-1.9,0.3c-3.5,6.3-10.3,4.4-12.5,3.6c-0.4-4.7-0.5-8-0.5-8s0-11.1,0-13.7
	c0-2.6-0.2-2.8-0.2-2.8C40.8,0.2,26.4,0,23.7,0s-2.5,2-2.5,2l0.4,14.7c0,0.7,0,1.5,0,2.2C19.2,20.1,13.1,22.5,9,17
	c0,0-0.4-0.4-1.9-0.1c-1.5,0.4-3.4,1.7-2.6,4.8c0.3,1.2,1.5,1.6,1.8,2.7c0.3,1.2-0.6,2-0.4,3.2c0.7,3.1,3,3.4,4.5,3
	c1.5-0.4,1.7-0.9,1.7-0.9c1.1-6.2,6.5-7.3,9.5-7.5c-0.4,10.5-1.8,20.6-3,26.7l-0.1-0.4c0,0-8.8,4.6-13.3-2.8c0,0-0.4-0.5-1.9-0.3
	c-1.5,0.2-3.5,1.3-3.1,4.4c0.2,1.2,1.3,1.7,1.5,2.9c0.2,1.2-0.8,1.9-0.7,3.2c0.4,3.1,2.7,3.7,4.2,3.5c1.5-0.2,1.8-0.7,1.8-0.7
	c1.9-6.6,8.3-6.7,11-6.4c-0.2,0.7-0.3,1.3-0.5,1.8c-1.4,4.3-0.2,5.8-0.2,5.8c8.2,4.6,8.6,14,8.5,17.2c0,0.7,0,1.2,0,1.2h16.8
	c0-12.3,7.6-12.2,8.9-14.8c0.5-1,0.6-1.9,0.5-2.7c3-0.1,8.3,0.6,10,6.4c0,0,0.3,0.5,1.8,0.7c1.5,0.2,3.7-0.4,4.1-3.5
	c0.2-1.2-0.8-2-0.7-3.2C67.2,60,68.3,59.5,68.5,58.3z M25.8,51.2c-1.1,0.6-2.5,0.2-3-1c-0.6-1.1-0.2-2.5,0.9-3.1
	c1.1-0.6,2.5-0.2,3,1C27.3,49.2,26.9,50.6,25.8,51.2z M30.4,20.1c-1.1,0.6-2.5,0.2-3-1c-0.6-1.1-0.2-2.5,0.9-3.1s2.5-0.2,3,1
	C32,18.1,31.5,19.5,30.4,20.1z M39.9,33.9c-1.1,0.6-2.5,0.2-3-1c-0.6-1.1-0.2-2.5,0.9-3.1c1.1-0.6,2.5-0.2,3,1
	C41.4,32,41,33.4,39.9,33.9z M44.2,59.7c-1.1,0.6-2.5,0.2-3-1c-0.6-1.1-0.2-2.5,0.9-3.1c1.1-0.6,2.5-0.2,3,1
	C45.8,57.7,45.3,59.1,44.2,59.7z"/>
<rect x="25.6" y="81" width="16.8" height="9"/>
</svg>
