<?xml version="1.0" encoding="utf-8"?>
<!-- Generator: Adobe Illustrator 21.1.0, SVG Export Plug-In . SVG Version: 6.00 Build 0)  -->
<svg version="1.1" id="Layer_1" xmlns="http://www.w3.org/2000/svg" xmlns:xlink="http://www.w3.org/1999/xlink" x="0px" y="0px"
	 viewBox="0 0 719.9 177.3" style="enable-background:new 0 0 719.9 177.3;" xml:space="preserve">
<style type="text/css">
	.st0{fill:#DD3726;}
	.st1{fill:#EEC718;}
	.st2{enable-background:new    ;}
	.st3{fill:#FFFFFF;}
</style>
<g>
	<g>
		<path class="st0" d="M39,124.5C37.3,110,53.9,95.9,76.8,91.9V37.5L0,15.3v151.1l76.8-8.7v-10.5C56.6,146.7,40.6,137.5,39,124.5z
			 M36,118.8L15.1,94.1l-0.8-6.9l26.6,21.1C36.9,111.3,36,118.8,36,118.8z M14.2,84.6l10.6-20.1c1,1.2,5.7,0.5,5.7,0.5l-8.7,24
			L14.2,84.6z M43.2,103.9l-7.2-17l32.2-10.4l6.4,13.2C49.8,94.7,43.2,103.9,43.2,103.9z M69.6,73L32.7,85.2l-1.2-3L68.1,70L69.6,73
			z M7.2,53.6c0.4-3.5,9.7-5.3,20.9-4.1c11.1,1.3,19.8,5.1,19.4,8.6c-0.4,3.5-9.7,5.3-20.9,4.1C15.5,60.9,6.8,57.1,7.2,53.6z
			 M14,157.7l-2.8-9.9l25.3-23.1c0,0-0.6,4.1,1.6,7.4L14,157.7z"/>
		<g>
			<path class="st1" d="M82.4,36.4v54.7c24.1-2.4,44.8,7.5,46.6,22.4c1.9,15.3-16.8,30.1-41.6,33.1c-1.7,0.2-3.3,0.3-5,0.4v10.6
				l107.5,19.6V0L82.4,36.4z M95.2,66.3l43.9,1.3l-1.8,3.7l-43.9-1.6L95.2,66.3z M122.8,98.2c0,0-12.6-12.9-34.6-10l6.9-15.6l38.1,1
				L122.8,98.2z M125.5,131.3c0,0,6.1-3.4,6.3-13.6l31.5,31.4l1.7,8.3L125.5,131.3z M160.8,79.6l-29.7,33.6c0,0,0.8-5.9-4.1-11.9
				l38-31.1L160.8,79.6z M165,67.5l-8.9,6.7l-7-27c9.7-1.7,17.9-8.4,17.9-8.4L165,67.5z M157.3,40.7c-17,8-32.1,11.6-33.8,8.1
				c-1.7-3.5,10.8-12.9,27.8-20.9s32.1-11.6,33.8-8.1C186.7,23.3,174.3,32.7,157.3,40.7z"/>
			<ellipse class="st1" cx="97.3" cy="134.5" rx="11.8" ry="7"/>
		</g>
	</g>
	<g>
		<g class="st2">
			<path class="st3" d="M229,72.1c7.6,0,11.5,4.5,11.5,12.5v1.6h-7.4v-2.1c0-3.5-1.4-4.9-3.9-4.9s-3.9,1.3-3.9,4.9s1.6,6.3,6.7,10.8
				c6.5,5.7,8.6,9.9,8.6,15.5c0,7.9-4,12.5-11.6,12.5s-11.6-4.5-11.6-12.5v-3h7.4v3.5c0,3.5,1.6,4.8,4,4.8c2.5,0,4-1.3,4-4.8
				c0-3.6-1.6-6.3-6.7-10.8c-6.5-5.7-8.6-9.9-8.6-15.5C217.5,76.6,221.4,72.1,229,72.1z"/>
			<path class="st3" d="M284.2,122.3h-7.9l-1.3-9h-9.6l-1.3,9h-7.2l7.9-49.6h11.4L284.2,122.3z M266.4,106.5h7.5l-3.7-25.1h-0.1
				L266.4,106.5z"/>
			<path class="st3" d="M308.9,86.3h-0.1v35.9h-7V72.6h9.8l7.9,29.7h0.1V72.6h6.9v49.6h-8L308.9,86.3z"/>
			<path class="st3" d="M346,72.6h12.3c7.8,0,11.6,4.3,11.6,12.3V110c0,7.9-3.8,12.3-11.6,12.3H346V72.6z M353.8,79.7v35.4h4.4
				c2.5,0,4-1.3,4-4.8V84.6c0-3.5-1.5-4.8-4-4.8L353.8,79.7L353.8,79.7z"/>
			<path class="st3" d="M405.2,122.3c-0.4-1.3-0.7-2.1-0.7-6.1v-7.8c0-4.6-1.6-6.3-5.1-6.3h-2.7v20.2h-7.8V72.6h11.8
				c8.1,0,11.6,3.8,11.6,11.4v4c0,5.1-1.6,8.4-5.1,10v0.1c3.9,1.6,5.2,5.3,5.2,10.5v7.7c0,2.4,0.1,4.2,0.9,6
				C413.3,122.3,405.2,122.3,405.2,122.3z M396.7,79.7V95h3c2.9,0,4.7-1.3,4.7-5.2v-4.9c0-3.5-1.2-5.1-4-5.1h-3.7V79.7z"/>
			<path class="st3" d="M430.7,84.6c0-7.9,4.2-12.5,11.8-12.5c7.7,0,11.8,4.5,11.8,12.5v25.8c0,7.9-4.2,12.5-11.8,12.5
				c-7.7,0-11.8-4.5-11.8-12.5V84.6z M438.5,110.9c0,3.5,1.6,4.9,4,4.9c2.5,0,4-1.3,4-4.9V84.1c0-3.5-1.6-4.9-4-4.9
				c-2.5,0-4,1.3-4,4.9V110.9z"/>
			<path class="st3" d="M514.8,107.9L514.8,107.9l5.3-35.2H531v49.6h-7.4V86.7h-0.1l-5.2,35.6h-7.4l-5.7-35.1h-0.1v35.1h-6.8V72.6
				h10.8L514.8,107.9z"/>
			<path class="st3" d="M550,84.6c0-7.9,4.2-12.5,11.8-12.5c7.7,0,11.8,4.5,11.8,12.5v25.8c0,7.9-4.2,12.5-11.8,12.5
				c-7.7,0-11.8-4.5-11.8-12.5V84.6z M557.8,110.9c0,3.5,1.6,4.9,4,4.9c2.5,0,4-1.3,4-4.9V84.1c0-3.5-1.6-4.9-4-4.9
				c-2.5,0-4,1.3-4,4.9V110.9z"/>
			<path class="st3" d="M600.2,72.6v38.3c0,3.5,1.6,4.8,4,4.8s4-1.3,4-4.8V72.6h7.4v37.8c0,7.9-4,12.5-11.6,12.5
				s-11.6-4.5-11.6-12.5V72.6H600.2z"/>
			<path class="st3" d="M651.2,122.3c-0.4-1.3-0.7-2.1-0.7-6.1v-7.8c0-4.6-1.6-6.3-5.1-6.3h-2.7v20.2h-7.8V72.6h11.8
				c8.1,0,11.6,3.8,11.6,11.4v4c0,5.1-1.6,8.4-5.1,10v0.1c3.9,1.6,5.2,5.3,5.2,10.5v7.7c0,2.4,0.1,4.2,0.9,6
				C659.3,122.3,651.2,122.3,651.2,122.3z M642.7,79.7V95h3c2.9,0,4.7-1.3,4.7-5.2v-4.9c0-3.5-1.2-5.1-4-5.1h-3.7V79.7z"/>
			<path class="st3" d="M702.6,122.3h-7.9l-1.3-9h-9.6l-1.3,9h-7.2l7.9-49.6h11.4L702.6,122.3z M684.8,106.5h7.5l-3.7-25.1h-0.1
				L684.8,106.5z"/>
		</g>
		<g class="st2">
			<path class="st3" d="M217.4,23.3h4.9v31.5h-4.9V23.3z"/>
			<path class="st3" d="M239.4,32v22.8h-4.5V23.3h6.2l5.1,18.9V23.3h4.4v31.5h-5.1L239.4,32z"/>
			<path class="st3" d="M269.9,22.9c4.8,0,7.3,2.9,7.3,7.9v1h-4.7v-1.3c0-2.2-0.9-3.1-2.5-3.1s-2.5,0.9-2.5,3.1
				c0,6.5,9.7,7.7,9.7,16.7c0,5-2.5,7.9-7.4,7.9s-7.4-2.9-7.4-7.9v-1.9h4.7v2.2c0,2.2,1,3.1,2.6,3.1s2.6-0.8,2.6-3.1
				c0-6.5-9.7-7.7-9.7-16.7C262.6,25.8,265,22.9,269.9,22.9z"/>
			<path class="st3" d="M287.6,23.3h15.3v4.5h-5.2v27h-4.9v-27h-5.2L287.6,23.3L287.6,23.3z"/>
			<path class="st3" d="M314,23.3h4.9v31.5H314V23.3z"/>
			<path class="st3" d="M330.1,23.3h15.3v4.5h-5.2v27h-4.9v-27h-5.2L330.1,23.3L330.1,23.3z"/>
			<path class="st3" d="M361.3,23.3v24.3c0,2.2,1,3.1,2.6,3.1s2.6-0.8,2.6-3.1V23.3h4.7v24c0,5-2.5,7.9-7.4,7.9s-7.4-2.9-7.4-7.9
				v-24H361.3z"/>
			<path class="st3" d="M382.1,23.3h15.3v4.5h-5.2v27h-4.9v-27h-5.2L382.1,23.3L382.1,23.3z"/>
			<path class="st3" d="M408.1,30.8c0-5,2.7-7.9,7.5-7.9c4.9,0,7.5,2.9,7.5,7.9v16.4c0,5-2.7,7.9-7.5,7.9c-4.9,0-7.5-2.9-7.5-7.9
				V30.8z M413.1,47.5c0,2.2,1,3.1,2.6,3.1s2.6-0.9,2.6-3.1v-17c0-2.2-1-3.1-2.6-3.1s-2.6,0.9-2.6,3.1V47.5z"/>
		</g>
		<g class="st2">
			<path class="st3" d="M217.4,140.6h8.1v1.4h-6.7v4.4h6.7v1.4h-6.7v5.6h6.7v1.4h-8.1V140.6z"/>
			<path class="st3" d="M233.9,154.8v-14.2h0.3l9.4,10.9v-10.9h1.4v14.2h-0.3l-9.4-10.7v10.7H233.9z"/>
			<path class="st3" d="M253,152.1l1.2-0.7c0.8,1.6,1.8,2.3,2.9,2.3c0.5,0,0.9-0.1,1.3-0.3s0.7-0.5,1-0.9c0.2-0.4,0.3-0.8,0.3-1.2
				c0-0.5-0.2-0.9-0.5-1.4c-0.4-0.6-1.3-1.4-2.4-2.3c-1.2-0.9-1.9-1.5-2.2-1.9c-0.5-0.7-0.8-1.4-0.8-2.2c0-0.6,0.1-1.2,0.4-1.7
				c0.3-0.5,0.7-0.9,1.2-1.2s1.1-0.4,1.7-0.4c0.7,0,1.3,0.2,1.9,0.5s1.2,0.9,1.8,1.8l-1.2,0.9c-0.5-0.7-1-1.2-1.4-1.4
				s-0.8-0.3-1.2-0.3c-0.6,0-1,0.2-1.4,0.5s-0.5,0.8-0.5,1.3c0,0.3,0.1,0.6,0.2,0.9c0.1,0.3,0.4,0.6,0.7,0.9
				c0.2,0.2,0.8,0.7,1.8,1.4c1.2,0.9,2.1,1.7,2.5,2.4s0.7,1.4,0.7,2.1c0,1-0.4,1.9-1.2,2.7c-0.8,0.8-1.7,1.1-2.8,1.1
				c-0.9,0-1.6-0.2-2.3-0.7C254.3,154,253.6,153.2,253,152.1z"/>
			<path class="st3" d="M270.1,140.6h1.4v14.2h-1.4V140.6z"/>
			<path class="st3" d="M280.8,154.8v-14.2h0.3l9.4,10.9v-10.9h1.4v14.2h-0.3l-9.4-10.7v10.7H280.8z"/>
			<path class="st3" d="M308.1,140.2c2.1,0,3.9,0.7,5.4,2.1c1.4,1.4,2.2,3.2,2.2,5.3s-0.7,3.8-2.2,5.3c-1.4,1.4-3.2,2.2-5.3,2.2
				c-2.1,0-3.9-0.7-5.3-2.2c-1.4-1.4-2.2-3.2-2.2-5.2c0-1.4,0.3-2.6,1-3.8s1.6-2.1,2.7-2.7C305.5,140.6,306.8,140.2,308.1,140.2z
				 M308.1,141.6c-1,0-2,0.3-3,0.8c-0.9,0.5-1.7,1.3-2.2,2.2s-0.8,2-0.8,3.1c0,1.7,0.6,3.1,1.8,4.3c1.2,1.2,2.6,1.7,4.2,1.7
				c1.1,0,2.1-0.3,3.1-0.8c0.9-0.5,1.7-1.3,2.2-2.2s0.8-2,0.8-3.1s-0.3-2.1-0.8-3.1c-0.5-0.9-1.3-1.6-2.2-2.2
				C310.2,141.9,309.2,141.6,308.1,141.6z"/>
			<path class="st3" d="M335.3,154.8l2-14.2h0.2l5.8,11.6l5.7-11.6h0.2l2,14.2h-1.4l-1.4-10.1l-5,10.1H343l-5.1-10.2l-1.4,10.2
				H335.3z"/>
			<path class="st3" d="M360.1,140.6h1.4v8.6c0,1,0,1.6,0.1,1.9c0.1,0.6,0.2,1,0.5,1.4s0.7,0.7,1.2,0.9s1.1,0.4,1.6,0.4
				s0.9-0.1,1.3-0.3s0.8-0.5,1.1-0.8s0.5-0.8,0.6-1.3c0.1-0.4,0.1-1.1,0.1-2.2v-8.6h1.4v8.6c0,1.3-0.1,2.3-0.4,3.1
				c-0.2,0.8-0.7,1.5-1.5,2s-1.6,0.9-2.7,0.9s-2.1-0.3-2.9-0.8s-1.4-1.3-1.6-2.2c-0.2-0.6-0.3-1.5-0.3-3L360.1,140.6L360.1,140.6z"
				/>
			<path class="st3" d="M377.5,152.1l1.2-0.7c0.8,1.6,1.8,2.3,2.9,2.3c0.5,0,0.9-0.1,1.3-0.3s0.7-0.5,1-0.9c0.2-0.4,0.3-0.8,0.3-1.2
				c0-0.5-0.2-0.9-0.5-1.4c-0.4-0.6-1.3-1.4-2.4-2.3c-1.2-0.9-1.9-1.5-2.2-1.9c-0.5-0.7-0.8-1.4-0.8-2.2c0-0.6,0.1-1.2,0.4-1.7
				s0.7-0.9,1.2-1.2s1.1-0.4,1.8-0.4c0.7,0,1.3,0.2,1.9,0.5s1.2,0.9,1.8,1.8l-1.2,0.9c-0.5-0.7-1-1.2-1.4-1.4s-0.8-0.3-1.2-0.3
				c-0.6,0-1,0.2-1.4,0.5s-0.5,0.8-0.5,1.3c0,0.3,0.1,0.6,0.2,0.9c0.1,0.3,0.4,0.6,0.7,0.9c0.2,0.2,0.8,0.7,1.8,1.4
				c1.2,0.9,2.1,1.7,2.5,2.4s0.7,1.4,0.7,2.1c0,1-0.4,1.9-1.2,2.7c-0.8,0.8-1.7,1.1-2.8,1.1c-0.9,0-1.6-0.2-2.3-0.7
				C378.7,154,378.1,153.2,377.5,152.1z"/>
			<path class="st3" d="M394.5,140.6h1.4v14.2h-1.4V140.6z"/>
			<path class="st3" d="M418.4,143.2l-1.1,0.9c-0.6-0.8-1.4-1.4-2.2-1.8c-0.9-0.4-1.8-0.6-2.8-0.6c-1.1,0-2.2,0.3-3.1,0.8
				s-1.7,1.3-2.2,2.2s-0.8,1.9-0.8,3.1c0,1.7,0.6,3.2,1.8,4.3s2.7,1.7,4.5,1.7c2,0,3.6-0.8,5-2.3l1.1,0.8c-0.7,0.9-1.6,1.6-2.6,2.1
				s-2.2,0.7-3.5,0.7c-2.5,0-4.4-0.8-5.9-2.5c-1.2-1.4-1.8-3.1-1.8-5.1c0-2.1,0.7-3.8,2.2-5.2s3.3-2.1,5.5-2.1
				c1.3,0,2.5,0.3,3.6,0.8S417.7,142.3,418.4,143.2z"/>
			<path class="st3" d="M433,140.6l6.6,14.2h-1.5l-2.2-4.7h-6.1l-2.2,4.7H426l6.7-14.2H433z M432.8,143.6l-2.4,5.1h4.8L432.8,143.6z
				"/>
			<path class="st3" d="M447.8,140.6h1.4v12.8h5.5v1.4h-6.9V140.6z"/>
			<path class="st3" d="M474.4,140.6h8.1v1.4h-6.7v4.4h6.7v1.4h-6.7v5.6h6.7v1.4h-8.1V140.6z"/>
			<path class="st3" d="M508.1,140.6l6.6,14.2h-1.5l-2.2-4.7h-6.1l-2.2,4.7h-1.6l6.7-14.2H508.1z M508,143.6l-2.4,5.1h4.8L508,143.6
				z"/>
			<path class="st3" d="M534.4,154.8v-14.2h2.9c2.1,0,3.7,0.2,4.6,0.5c1.4,0.5,2.4,1.3,3.2,2.5s1.2,2.6,1.2,4.2
				c0,1.4-0.3,2.7-0.9,3.7s-1.4,1.9-2.4,2.4s-2.4,0.8-4.1,0.8h-4.5V154.8z M535.7,153.4h1.6c2,0,3.3-0.1,4.1-0.4
				c1.1-0.3,1.9-1,2.5-1.9s0.9-2,0.9-3.3c0-1.4-0.3-2.5-1-3.5s-1.6-1.6-2.8-2c-0.9-0.3-2.3-0.4-4.4-0.4h-1v11.5H535.7z"/>
			<path class="st3" d="M554.8,140.6h1.4v14.2h-1.4V140.6z"/>
			<path class="st3" d="M564,152.1l1.2-0.7c0.8,1.6,1.8,2.3,2.9,2.3c0.5,0,0.9-0.1,1.3-0.3s0.7-0.5,1-0.9c0.2-0.4,0.3-0.8,0.3-1.2
				c0-0.5-0.2-0.9-0.5-1.4c-0.4-0.6-1.3-1.4-2.4-2.3c-1.2-0.9-1.9-1.5-2.2-1.9c-0.5-0.7-0.8-1.4-0.8-2.2c0-0.6,0.1-1.2,0.4-1.7
				c0.3-0.5,0.7-0.9,1.2-1.2s1.1-0.4,1.8-0.4s1.3,0.2,1.9,0.5s1.2,0.9,1.8,1.8l-1.2,0.9c-0.5-0.7-1-1.2-1.4-1.4s-0.8-0.3-1.2-0.3
				c-0.6,0-1,0.2-1.4,0.5s-0.5,0.8-0.5,1.3c0,0.3,0.1,0.6,0.2,0.9c0.1,0.3,0.4,0.6,0.7,0.9c0.2,0.2,0.8,0.7,1.8,1.4
				c1.2,0.9,2.1,1.7,2.5,2.4s0.7,1.4,0.7,2.1c0,1-0.4,1.9-1.2,2.7s-1.7,1.1-2.8,1.1c-0.9,0-1.6-0.2-2.3-0.7
				C565.3,154,564.6,153.2,564,152.1z"/>
			<path class="st3" d="M579.9,142v-1.4h7.8v1.4h-3.2v12.8h-1.4V142H579.9z"/>
			<path class="st3" d="M601.5,140.6l6.6,14.2h-1.5l-2.2-4.7h-6.1l-2.2,4.7h-1.6l6.7-14.2H601.5z M600.6,137h1.3l2.8,2.5H603
				l-1.7-1.5l-1.8,1.5h-1.8L600.6,137z M601.3,143.6l-2.4,5.1h4.8L601.3,143.6z"/>
			<path class="st3" d="M616.3,154.8v-14.2h0.3l9.4,10.9v-10.9h1.4v14.2h-0.3l-9.4-10.7v10.7H616.3z"/>
			<path class="st3" d="M650.1,143.2l-1.1,0.9c-0.6-0.8-1.4-1.4-2.2-1.8c-0.9-0.4-1.8-0.6-2.8-0.6c-1.1,0-2.2,0.3-3.1,0.8
				s-1.7,1.3-2.2,2.2s-0.8,1.9-0.8,3.1c0,1.7,0.6,3.2,1.8,4.3s2.7,1.7,4.5,1.7c2,0,3.6-0.8,5-2.3l1.1,0.8c-0.7,0.9-1.6,1.6-2.6,2.1
				s-2.2,0.7-3.5,0.7c-2.5,0-4.4-0.8-5.9-2.5c-1.2-1.4-1.8-3.1-1.8-5.1c0-2.1,0.7-3.8,2.2-5.2s3.3-2.1,5.5-2.1
				c1.3,0,2.5,0.3,3.6,0.8S649.4,142.3,650.1,143.2z"/>
			<path class="st3" d="M658.7,140.6h1.4v14.2h-1.4V140.6z"/>
			<path class="st3" d="M675.1,140.6l6.6,14.2h-1.5l-2.2-4.7h-6.1l-2.2,4.7h-1.6l6.7-14.2H675.1z M674.9,143.6l-2.4,5.1h4.8
				L674.9,143.6z"/>
		</g>
	</g>
</g>
</svg>
