<?xml version="1.0" encoding="utf-8"?>
<!-- Generator: Adobe Illustrator 21.1.0, SVG Export Plug-In . SVG Version: 6.00 Build 0)  -->
<svg version="1.1" id="Layer_1" xmlns="http://www.w3.org/2000/svg" xmlns:xlink="http://www.w3.org/1999/xlink" x="0px" y="0px"
	 viewBox="0 0 83 85.8" style="enable-background:new 0 0 83 85.8;" xml:space="preserve">
<g>
	<path d="M79.7,77.8h-6.3V57.2c0.1,0,0.1-0.1,0.2-0.1c6.3-7,8.6-11.8,8.6-17.9c0-7.3-5.9-13.2-13.1-13.2c-2.5,0-5,0.7-7.1,2
		l-2.6-2.6L57.7,27L43.1,12.3l1.2-1.2c0.2-0.2,0.2-0.6,0-0.8L44.1,10c1.6-1.9,1.5-4.8-0.3-6.6l-2-2c-1.8-1.8-4.7-1.9-6.6-0.3L35,1
		c-0.2-0.2-0.6-0.2-0.8,0L33,2.2l-1-1c-0.4-0.4-1-0.4-1.4,0s-0.4,1,0,1.4l1,1l-1.1,1.1c-0.2,0.2-0.2,0.6,0,0.8l9.3,9.3
		c0.2,0.2,0.6,0.2,0.8,0l1.1-1.1l14.9,14.9l-1.5,1.5l5.7,5.7c-0.1,0.2-0.2,0.5-0.3,0.7l-6-2.5l-1,2.1L32.6,26l0.7-1.6
		c0.1-0.3,0-0.6-0.3-0.7l-0.3-0.1c0.9-2.4-0.2-5-2.5-6.1l-2.6-1.2c-2.3-1.1-5.1-0.1-6.3,2.1l-0.2-0.2c-0.3-0.1-0.6,0-0.7,0.3
		L19.7,20l-1.3-0.6c-0.5-0.2-1.1,0-1.3,0.5c-0.2,0.5,0,1.1,0.5,1.3l1.3,0.6l-0.6,1.4c-0.1,0.3,0,0.6,0.3,0.7l11.9,5.5
		c0.3,0.1,0.6,0,0.7-0.3l0.6-1.4l21.1,10L52,39.6l9.6,4.5c0.8,1.2,1.9,2.3,3.2,3v11l-50,19.5H3.4C1.5,77.6,0,79.1,0,81v1.4
		c0,1.9,1.5,3.4,3.4,3.4h76.2c1.9,0,3.4-1.5,3.4-3.4V81C83.1,79.3,81.6,77.8,79.7,77.8z M36.7,2.6c1.1-0.8,2.8-0.7,3.8,0.3l2,2
		c0.5,0.5,0.8,1.3,0.8,2c0,0.6-0.2,1.2-0.6,1.7L36.7,2.6z M31,22.7l-7.7-3.5c0.8-1.1,2.3-1.6,3.6-1.1l2.6,1.2
		c0.7,0.3,1.2,0.9,1.5,1.6C31.1,21.5,31.1,22.1,31,22.7z M69,28c6.1,0,11.1,5,11.1,11.2c0,5.1-1.8,9.2-6.8,15v-7
		c2.8-1.5,4.8-4.6,4.8-8c0-5.1-4-9.1-9.1-9.1c-1.5,0-2.8,0.4-4.1,1l-1.5-1.5C65,28.6,66.9,28,69,28z M57.7,30l1.6-1.6l3.8,3.8
		c-0.5,0.4-0.9,0.8-1.3,1.3l-0.3,0.3L57.7,30z M54.4,38.7l1-2.1l4.6,1.9c0,0.2,0,0.5,0,0.7c0,0.8,0.1,1.5,0.3,2.2L54.4,38.7z
		 M61.9,39.2c0-1.6,0.6-3.1,1.5-4.3l1.3-1.3c1.2-0.9,2.7-1.5,4.3-1.5c3.9,0,7.1,3.1,7.1,7.1c0,3.9-3.1,7.1-7.1,7.1
		C65,46.3,61.9,43.1,61.9,39.2z M71.3,48.1v29.8h-4.8V48c0.8,0.2,1.6,0.4,2.4,0.4C69.8,48.4,70.6,48.3,71.3,48.1z M64.6,60.4v2.9
		L27.7,77.8h-7.4L64.6,60.4z M64.6,65.5v12.3H33.3L64.6,65.5z M79.7,84.1H3.4c-0.8,0-1.4-0.6-1.4-1.4v-1.4c0-0.8,0.6-1.4,1.4-1.4
		h61.1h8.8h6.3c0.8,0,1.4,0.6,1.4,1.4v1.4h0.1C81.1,83.5,80.5,84.1,79.7,84.1z"/>
	<path d="M73.3,39.2c0-2.4-1.9-4.3-4.3-4.3s-4.3,1.9-4.3,4.3c0,2.4,1.9,4.3,4.3,4.3C71.4,43.5,73.3,41.6,73.3,39.2z M69,41.5
		c-1.3,0.1-2.3-1-2.3-2.3s1-2.3,2.3-2.3s2.3,1,2.3,2.3C71.3,40.5,70.3,41.5,69,41.5z"/>
</g>
</svg>
