<?xml version="1.0" encoding="utf-8"?>
<!-- Generator: Adobe Illustrator 21.1.0, SVG Export Plug-In . SVG Version: 6.00 Build 0)  -->
<svg version="1.1" id="Layer_1" xmlns="http://www.w3.org/2000/svg" xmlns:xlink="http://www.w3.org/1999/xlink" x="0px" y="0px"
	 viewBox="0 0 68.1 90.3" style="enable-background:new 0 0 68.1 90.3;" xml:space="preserve">
<g>
	<path d="M50.8,42.2c-0.3-0.8-0.7-1.8-1.1-2.7l-4.1-9.3c0-0.9-0.1-1.8-0.4-2.7c-1-2.7-3.1-4.2-5-3.5c-1.8,0.7-2.5,3.1-1.6,5.9l0,0
		l0,0c0.3,0.9,0.8,1.7,1.5,2.4l2.8,9.2c0.4,1.3,0.9,2.6,1.3,3.8l15.7,42.6c0.7,1.9,2.8,2.9,4.7,2.1c1.9-0.7,2.9-2.8,2.1-4.7
		L50.8,42.2z M64,88.6c-1.1,0.4-2.2-0.1-2.6-1.2L45.7,44.7c-0.4-1.2-0.9-2.5-1.3-3.7l-2.9-9.6c-0.5-0.5-1-1.2-1.4-2.1
		c-0.6-1.8-0.3-3.5,0.6-3.8c1-0.4,2.3,0.8,2.9,2.5c0.3,0.9,0.4,1.7,0.3,2.5l4.3,9.7c0.4,0.9,0.7,1.8,1.1,2.6L65.2,86
		C65.6,87,65,88.2,64,88.6z"/>
	<path d="M25,41.5l2.8-9.2c0.6-0.7,1.1-1.5,1.5-2.4l0,0l0,0c0.9-2.8,0.2-5.2-1.6-5.9c-1.9-0.7-4,0.8-5,3.5c-0.3,0.9-0.5,1.8-0.4,2.7
		l-4.1,9.3c-0.4,0.9-0.8,1.9-1.1,2.7l-16,43.2c-0.7,1.9,0.2,4,2.1,4.7s4-0.2,4.7-2.1l15.7-42.6C24.1,44,24.6,42.7,25,41.5z
		 M22.1,44.7L6.4,87.4C6,88.5,4.9,89,3.8,88.6S2.2,87.1,2.6,86l15.9-43.2c0.3-0.8,0.6-1.7,1.1-2.6l4.3-9.7c-0.1-0.7,0-1.6,0.3-2.5
		c0.6-1.7,1.9-2.9,2.9-2.5s1.2,2.1,0.6,3.8c-0.3,0.9-0.8,1.6-1.4,2.1L23.4,41C23.1,42.2,22.6,43.5,22.1,44.7z"/>
	<path d="M48.3,64.6c-4.3,2.1-9.2,3.3-14.4,3.3c-5.1,0-9.9-1.2-14.2-3.3c-0.4-0.2-0.9,0-1.1,0.5c-0.1,0.4,0.1,0.8,0.4,0.9
		c3.7,1.8,7.8,3,12.2,3.3c0.6,0.9,1.5,1.5,2.7,1.5c1.1,0,2.2-0.6,2.7-1.5c4.4-0.3,8.5-1.5,12.3-3.4c0.4-0.2,0.5-0.6,0.4-1
		C49.2,64.6,48.7,64.4,48.3,64.6z"/>
	<path d="M67.1,43.3c0.6-2.6,1-5.2,1-7.9s-0.3-5.4-1-7.9c0.2-0.2,0.3-0.4,0.4-0.6c0.4-0.7,0.5-1.6,0.2-2.4c-0.2-0.8-0.8-1.5-1.6-1.9
		c-0.2-0.1-0.5-0.2-0.7-0.2c-2.1-5-5.3-9.3-9.3-12.8c0.1-1-0.4-2.2-1.3-2.8c-0.7-0.5-1.5-0.7-2.4-0.6c-0.2,0-0.5,0.1-0.7,0.2
		C47.3,3.7,42.1,2,36.6,1.5C36,0.6,35.1,0,33.9,0c-1.1,0-2.2,0.6-2.7,1.5c-5.5,0.4-10.6,2.2-15.1,4.9c-0.2-0.1-0.5-0.2-0.7-0.2
		C14.5,6,13.7,6.3,13,6.8c-0.7,0.5-1.1,1.2-1.3,2.1c-0.1,0.2,0,0.5,0,0.7c-4,3.5-7.3,7.8-9.3,12.8c-0.2,0.1-0.5,0.2-0.7,0.2
		c-0.7,0.4-1.3,1-1.6,1.9c-0.2,0.8-0.2,1.7,0.2,2.4c0.1,0.2,0.2,0.4,0.4,0.6c-0.3,2.5-0.6,5.2-0.6,7.9s0.3,5.4,1,7.9
		c-0.2,0.2-0.3,0.4-0.4,0.6c-0.4,0.7-0.5,1.6-0.2,2.4c0.3,1.1,1.2,1.9,2.3,2.1c1.4,3.3,3.3,6.3,5.5,9c0.4,0.4,1.1,0.3,1.3-0.2
		c0.1-0.3,0-0.5-0.1-0.8c-5.6-6.1-8.6-14.1-8.1-22.8C2.3,16.8,16.2,3.3,33,2.8c18.4-0.5,33.5,14.3,33.5,32.6
		c0,8.1-2.9,15.4-7.8,21.1c-0.2,0.2-0.2,0.5-0.1,0.8c0.2,0.5,0.9,0.6,1.3,0.2c2.3-2.7,4.2-5.7,5.6-9.1c1-0.2,1.9-1,2.3-2.1
		c0.2-0.8,0.2-1.7-0.2-2.4C67.5,43.7,67.3,43.5,67.1,43.3z"/>
	<path d="M57.1,53.8c0.2,0.6,1,0.7,1.4,0.2c4.2-5.6,6.6-12.7,6.2-20.3c-0.8-15.4-13.2-27.9-28.5-29c-18-1.3-33,13-33,30.7
		c0,6.9,2.3,13.2,6.1,18.3c0.4,0.5,1.2,0.4,1.4-0.2c0.1-0.3,0.1-0.5-0.1-0.8c-3.9-5.2-6.1-11.8-5.7-18.9C5.7,18.7,18.1,6.5,33.2,6.1
		c16.5-0.4,30,12.8,30,29.2c0,6.6-2.2,12.7-5.9,17.6C57,53.2,57,53.5,57.1,53.8z"/>
	<path d="M19.6,61.9c-0.1,0.4,0,0.8,0.4,1c4.2,2.1,8.9,3.2,13.9,3.2s9.7-1.2,13.9-3.3c0.4-0.2,0.5-0.6,0.4-1
		c-0.2-0.5-0.7-0.6-1.1-0.4c-3.9,2-8.4,3.1-13.1,3.1c-4.7,0-9.2-1.1-13.1-3.1C20.3,61.2,19.8,61.4,19.6,61.9z"/>
</g>
</svg>
