<?xml version="1.0" encoding="utf-8"?>
<!-- Generator: Adobe Illustrator 21.1.0, SVG Export Plug-In . SVG Version: 6.00 Build 0)  -->
<svg version="1.1" id="Layer_1" xmlns="http://www.w3.org/2000/svg" xmlns:xlink="http://www.w3.org/1999/xlink" x="0px" y="0px"
	 viewBox="0 0 431.5 333.9" style="enable-background:new 0 0 431.5 333.9;" xml:space="preserve">
<style type="text/css">
	.st0{fill:#FFFFFF;}
</style>
<g>
	<g>
		<g>
			<path class="st0" d="M351.1,93.6c-44.4,0-80.4,36-80.4,80.4s36,80.4,80.4,80.4s80.4-36,80.4-80.4S395.5,93.6,351.1,93.6z
				 M351.1,217.3c-23.9,0-43.3-19.4-43.3-43.3c0-23.9,19.4-43.3,43.3-43.3c23.9,0,43.3,19.4,43.3,43.3
				C394.4,198,375,217.3,351.1,217.3z"/>
			<path class="st0" d="M400.4,174.1h25c3.3,0,6.1-2.7,6.1-6.1V6.1c0-3.3-2.7-6.1-6.1-6.1h-25c-3.3,0-6.1,2.7-6.1,6.1V168
				C394.4,171.3,397.1,174.1,400.4,174.1z"/>
		</g>
		<path class="st0" d="M244.4,79.6c-34.6,0-62.6,28-62.6,62.6c0,0.4,0,0.7,0,1.1h28.9c0-0.4,0-0.7,0-1.1c0-18.6,15.1-33.7,33.7-33.7
			s33.7,15.1,33.7,33.7c0,5.1-1.1,9.9-3.1,14.2c-2,4.3,1.1,10-2.4,13l5.3,16.7c4.7-1.8-2.2,10.6,1.8,7.8
			c16.5-11.3,27.3-30.2,27.3-51.7C307.1,107.6,279,79.6,244.4,79.6z"/>
	</g>
	<g>
		<g>
			<path class="st0" d="M101.7,93.4c2.9,0,3.8,0.7,4.9,3.7c1.5,4.4,20.4,92.4,20.4,92.4c0.5,2.6,4.5,2.6,5,0l18.9-93.9
				c0.2-1.1,1.3-2,2.5-2h27c1.6,0,2.8,1.4,2.5,2.9l-33.3,147.1c-0.7,3.3-1.6,6.3-2.5,9c-0.4,1-1.3,1.7-2.4,1.7l-32.5,0.1
				c-1.1,0-2.1-0.7-2.4-1.7c-1-2.9-1.8-6.2-2.4-9.8l-13.3-79.7c-0.5-2.7-4.5-2.7-5,0L75.7,243c-0.7,3.6-1.6,6.9-2.7,9.8
				c-0.4,1-1.3,1.6-2.4,1.6l-32.5,0c-1.1,0-2.1-0.7-2.4-1.6c-1-2.7-1.8-5.7-2.6-9L0.1,96.6c-0.3-1.5,0.9-2.9,2.5-2.9h27
				c1.2,0,2.3,0.8,2.5,2l18.9,93.7c0.5,2.6,4.5,2.6,5,0c0,0,19.1-88.5,21.4-93c1.3-2.5,2.4-3,5-3L101.7,93.4z"/>
		</g>
		<path class="st0" d="M256.6,149.5c0,0-69.2,48.2-84.9,105h127.9c0,0-22-11.7-35.2-37.8c-0.1-0.1-0.3-0.4-0.3-0.4l-34,1.9l25.9-27
			c0,0,0-0.3,0-0.5C254,178.7,253.1,165.1,256.6,149.5z"/>
	</g>
	<g>
		<path class="st0" d="M58.7,276.4c0.7,0.5,1.1,0.9,1.3,1.4c0.2,0.4,0.3,0.8,0.3,1.2c0,0.6-0.2,1.2-0.7,1.8
			c-0.5,0.6-0.9,0.9-1.4,1.2c-0.4-0.5-1.1-1.1-2-1.7c-0.9-0.6-1.9-1.1-3-1.6c-1.2-0.5-2.4-0.9-3.9-1.2c-1.4-0.3-2.9-0.5-4.5-0.5
			c-2.6,0-5.1,0.5-7.4,1.4c-2.3,0.9-4.3,2.3-6,4c-1.7,1.7-3,3.8-4,6.3c-1,2.5-1.5,5.3-1.5,8.4c0,3.2,0.5,6,1.6,8.5
			c1,2.5,2.4,4.5,4.2,6.2c1.8,1.7,3.8,2.9,6.2,3.8c2.4,0.8,4.9,1.3,7.6,1.3c1.6,0,3.1-0.1,4.5-0.3c1.4-0.2,2.6-0.5,3.7-0.8
			c1.1-0.3,2-0.7,2.8-1.1c0.8-0.4,1.4-0.7,1.9-1l2,3.6c-0.5,0.4-1.2,0.8-2.1,1.2c-0.8,0.4-1.9,0.9-3.1,1.3c-1.2,0.4-2.7,0.7-4.3,1
			c-1.7,0.3-3.6,0.4-5.7,0.4c-3.2,0-6.3-0.5-9.2-1.6c-2.9-1.1-5.5-2.6-7.7-4.7c-2.2-2-4-4.5-5.3-7.5c-1.3-2.9-2-6.3-2-10.1
			c0-3.8,0.6-7.2,1.9-10.1c1.3-3,3-5.5,5.2-7.6c2.2-2.1,4.7-3.7,7.6-4.8c2.9-1.1,6-1.7,9.1-1.7c3.3,0,6.1,0.4,8.4,1.1
			C56,274.9,57.7,275.6,58.7,276.4z"/>
		<path class="st0" d="M98.8,303.4c0,2.4-0.4,4.6-1.3,6.8c-0.9,2.1-2.1,3.9-3.7,5.5c-1.6,1.6-3.4,2.8-5.6,3.7
			c-2.2,0.9-4.5,1.4-7.1,1.4c-2.6,0-4.9-0.5-7.1-1.4c-2.2-0.9-4-2.2-5.6-3.7c-1.6-1.6-2.8-3.4-3.7-5.5c-0.9-2.1-1.3-4.4-1.3-6.8
			c0-2.4,0.4-4.7,1.3-6.8c0.9-2.1,2.1-3.9,3.7-5.5c1.6-1.6,3.4-2.8,5.6-3.7c2.2-0.9,4.5-1.3,7.1-1.3c2.6,0,4.9,0.4,7.1,1.3
			c2.2,0.9,4,2.1,5.6,3.7c1.6,1.6,2.8,3.4,3.7,5.5C98.4,298.7,98.8,300.9,98.8,303.4z M94.1,303.4c0-1.9-0.3-3.7-0.9-5.4
			c-0.6-1.7-1.5-3.1-2.7-4.4c-1.2-1.2-2.5-2.2-4.1-2.9c-1.6-0.7-3.4-1-5.3-1c-2,0-3.7,0.3-5.3,1c-1.6,0.7-3,1.7-4.1,2.9
			c-1.2,1.2-2,2.7-2.7,4.4c-0.6,1.7-0.9,3.4-0.9,5.4c0,1.9,0.3,3.6,1,5.3c0.6,1.7,1.5,3.1,2.7,4.3c1.1,1.2,2.5,2.2,4.1,2.9
			c1.6,0.7,3.4,1.1,5.3,1.1c2,0,3.7-0.4,5.3-1.1c1.6-0.7,3-1.7,4.1-2.9c1.2-1.2,2-2.7,2.7-4.3C93.8,307,94.1,305.2,94.1,303.4z"/>
		<path class="st0" d="M154.9,319.8v-19.3c0-3.9-0.9-6.6-2.8-8.2c-1.9-1.6-4.3-2.5-7.2-2.5c-1.4,0-2.8,0.2-4,0.6
			c-1.2,0.4-2.3,1.1-3.3,2c-0.9,0.9-1.7,2.1-2.2,3.5c-0.5,1.4-0.8,3.2-0.8,5.2v18.6h-4.4v-18.6c0-2-0.3-3.8-0.8-5.2
			c-0.5-1.4-1.3-2.6-2.2-3.5c-0.9-0.9-2-1.6-3.2-2c-1.2-0.4-2.6-0.6-4-0.6c-1.5,0-2.8,0.2-4,0.6c-1.2,0.4-2.3,1-3.2,1.9
			c-0.9,0.9-1.6,2-2.1,3.4c-0.5,1.4-0.7,3-0.7,5v19.1h-4.4v-21.2c0-2.1,0.4-3.9,1.1-5.5c0.7-1.6,1.7-2.9,3-4
			c1.3-1.1,2.7-1.9,4.5-2.4c1.7-0.5,3.6-0.8,5.6-0.8c2.8,0,5.4,0.6,7.7,1.7c2.3,1.2,4,2.9,5.3,5.3c1.3-2.3,3-4.1,5.3-5.3
			c2.2-1.2,4.7-1.8,7.5-1.8c2,0,3.8,0.3,5.5,0.8c1.7,0.5,3.1,1.3,4.4,2.3c1.2,1,2.2,2.3,2.9,3.9c0.7,1.6,1.1,3.4,1.1,5.5v21.4H154.9
			z"/>
		<path class="st0" d="M194.1,289.2c0-0.7,0.2-1.2,0.6-1.6c0.4-0.4,1-0.6,1.8-0.6c0.4,0,0.8,0.1,1.2,0.2c0.4,0.1,0.7,0.2,0.8,0.3
			v19.2c0,2.1-0.4,4-1.1,5.7c-0.7,1.7-1.7,3.2-3.1,4.5c-1.3,1.2-3,2.2-4.9,2.9c-1.9,0.7-4.1,1-6.5,1c-2.4,0-4.5-0.3-6.5-1
			c-1.9-0.7-3.5-1.7-4.9-2.9c-1.3-1.2-2.4-2.7-3.1-4.5c-0.7-1.7-1.1-3.6-1.1-5.7v-17.4c0-0.7,0.2-1.2,0.6-1.6c0.4-0.4,1-0.6,1.8-0.6
			c0.4,0,0.8,0.1,1.2,0.2c0.4,0.1,0.7,0.2,0.8,0.3v17.9c0,3.7,0.9,6.5,2.7,8.6c1.8,2,4.6,3.1,8.3,3.1c3.7,0,6.5-1,8.3-3.1
			c1.8-2,2.8-4.9,2.8-8.6V289.2z"/>
		<path class="st0" d="M233.3,319.8v-18.4c0-3.7-0.9-6.5-2.8-8.6c-1.8-2-4.6-3.1-8.3-3.1c-3.7,0-6.5,1-8.3,3.1
			c-1.8,2-2.7,4.9-2.7,8.6v18.4h-4.4v-19.7c0-2.1,0.4-4,1.1-5.7c0.7-1.7,1.7-3.2,3.1-4.5c1.3-1.2,2.9-2.2,4.9-2.9
			c1.9-0.7,4.1-1,6.5-1c2.4,0,4.6,0.3,6.5,1c1.9,0.7,3.6,1.7,4.9,2.9c1.3,1.2,2.3,2.7,3.1,4.5c0.7,1.7,1.1,3.6,1.1,5.7v19.7H233.3z"
			/>
		<path class="st0" d="M251.7,275.3c0,0.9-0.3,1.7-1,2.3c-0.6,0.6-1.4,1-2.3,1c-0.9,0-1.6-0.3-2.3-1c-0.6-0.6-0.9-1.4-0.9-2.3
			c0-0.9,0.3-1.6,0.9-2.3c0.6-0.6,1.4-0.9,2.3-0.9c0.9,0,1.7,0.3,2.3,0.9C251.3,273.7,251.7,274.4,251.7,275.3z M246.3,289.2
			c0-0.7,0.2-1.2,0.6-1.6c0.4-0.4,1-0.6,1.8-0.6c0.4,0,0.8,0.1,1.2,0.2c0.4,0.1,0.7,0.2,0.8,0.3v32.4h-4.4V289.2z"/>
		<path class="st0" d="M275.5,289.8c-1.9,0-3.6,0.3-5.2,0.8c-1.6,0.5-2.9,1.4-4.1,2.5c-1.2,1.1-2.1,2.5-2.7,4.2c-0.6,1.7-1,3.7-1,6
			c0,2.4,0.4,4.5,1.1,6.2c0.7,1.7,1.7,3.1,2.9,4.2c1.2,1.1,2.7,1.9,4.3,2.4s3.4,0.8,5.3,0.8c2.3,0,4.2-0.3,5.5-0.8
			c1.3-0.5,2.3-1,3-1.4l1.8,3.3c-1.3,0.7-2.8,1.3-4.5,1.9c-1.7,0.6-3.9,0.8-6.7,0.8c-2.5,0-4.8-0.4-7-1.1c-2.2-0.8-4-1.9-5.6-3.3
			c-1.6-1.5-2.8-3.3-3.7-5.4c-0.9-2.1-1.3-4.5-1.3-7.3c0-2.8,0.4-5.3,1.3-7.5c0.9-2.2,2.1-4,3.7-5.6c1.6-1.5,3.4-2.7,5.6-3.4
			c2.2-0.8,4.5-1.2,7.1-1.2c2.9,0,5.2,0.3,6.9,0.9c1.6,0.6,2.7,1.1,3.1,1.4c0.3,0.2,0.6,0.5,0.8,0.8c0.2,0.3,0.3,0.7,0.3,1.2
			c0,0.4-0.1,0.8-0.4,1.3c-0.2,0.5-0.6,0.9-1.1,1.3c-0.8-0.7-1.9-1.4-3.6-2.1C280,290.2,278,289.8,275.5,289.8z"/>
		<path class="st0" d="M303.5,289.7c-2.5,0-4.5,0.3-6.1,0.9c-1.6,0.6-2.6,1.2-3.2,1.7c-0.3-0.2-0.6-0.5-0.8-0.9
			c-0.2-0.4-0.4-0.8-0.4-1.3c0-0.5,0.1-0.9,0.4-1.3c0.2-0.4,0.5-0.7,0.9-0.9c0.4-0.4,1.4-0.8,2.9-1.2c1.5-0.4,3.5-0.7,6.1-0.7
			c5.3,0,9.4,1.1,12.3,3.3c2.9,2.2,4.4,5.7,4.4,10.5v19.9c-1.3,0.2-3.1,0.5-5.6,0.7c-2.4,0.2-5.2,0.4-8.2,0.4
			c-3.5,0-6.4-0.3-8.5-0.9c-2.2-0.6-3.8-1.4-5-2.4c-1.2-1-2-2.1-2.4-3.4c-0.4-1.2-0.6-2.5-0.6-3.7c0-1.6,0.2-3,0.7-4.4
			c0.5-1.3,1.3-2.4,2.5-3.4c1.2-0.9,2.8-1.7,4.8-2.2c2-0.5,4.5-0.8,7.5-0.8c1,0,2,0,3.1,0.1c1.1,0.1,2.1,0.1,3,0.2
			c1,0.1,1.8,0.1,2.6,0.2c0.8,0.1,1.4,0.2,1.8,0.2v-0.4c0-2-0.3-3.7-1-5.1c-0.7-1.3-1.6-2.4-2.7-3.2c-1.1-0.8-2.4-1.3-3.9-1.6
			C306.6,289.8,305.1,289.7,303.5,289.7z M315.7,304.1c-0.4-0.1-1.5-0.3-3.2-0.5c-1.7-0.3-4.2-0.4-7.5-0.4c-1.6,0-3.1,0.1-4.5,0.3
			c-1.3,0.2-2.5,0.6-3.4,1.2c-1,0.6-1.7,1.3-2.2,2.2c-0.5,0.9-0.8,2.1-0.8,3.5c0,2.4,0.9,4.2,2.8,5.3c1.9,1.1,5,1.7,9.4,1.7
			c2.9,0,5-0.1,6.5-0.4c1.4-0.2,2.4-0.4,2.9-0.6V304.1z"/>
		<path class="st0" d="M344.6,289.8c-1.9,0-3.6,0.3-5.2,0.8c-1.6,0.5-2.9,1.4-4.1,2.5c-1.2,1.1-2.1,2.5-2.7,4.2c-0.6,1.7-1,3.7-1,6
			c0,2.4,0.4,4.5,1.1,6.2c0.7,1.7,1.7,3.1,2.9,4.2c1.2,1.1,2.7,1.9,4.3,2.4s3.4,0.8,5.3,0.8c2.3,0,4.2-0.3,5.5-0.8
			c1.3-0.5,2.3-1,3-1.4l1.8,3.3c-1.3,0.7-2.8,1.3-4.5,1.9c-1.7,0.6-3.9,0.8-6.7,0.8c-2.5,0-4.8-0.4-7-1.1c-2.2-0.8-4-1.9-5.6-3.3
			c-1.6-1.5-2.8-3.3-3.7-5.4c-0.9-2.1-1.3-4.5-1.3-7.3c0-2.8,0.4-5.3,1.3-7.5c0.9-2.2,2.1-4,3.7-5.6c1.6-1.5,3.4-2.7,5.6-3.4
			c2.2-0.8,4.5-1.2,7.1-1.2c2.9,0,5.2,0.3,6.9,0.9c1.6,0.6,2.7,1.1,3.1,1.4c0.3,0.2,0.6,0.5,0.8,0.8c0.2,0.3,0.3,0.7,0.3,1.2
			c0,0.4-0.1,0.8-0.4,1.3c-0.2,0.5-0.6,0.9-1.1,1.3c-0.8-0.7-1.9-1.4-3.6-2.1C349.1,290.2,347,289.8,344.6,289.8z M341.5,322.6
			c0.7,0,1.4,0.2,2.1,0.4c0.7,0.2,1.4,0.6,2,1c0.6,0.4,1.1,1,1.5,1.6c0.4,0.7,0.6,1.5,0.6,2.4c0,1.9-0.6,3.3-1.8,4.3
			c-1.2,1-2.8,1.5-4.8,1.5c-1.7,0-3-0.2-4.1-0.6c-1-0.4-1.6-0.7-1.7-0.8l1.3-2.7c0.1,0.1,0.5,0.3,1.3,0.7c0.8,0.4,1.8,0.5,2.9,0.5
			c0.9,0,1.7-0.2,2.3-0.6c0.6-0.4,0.9-1.1,0.9-2.1c0-0.5-0.1-1-0.4-1.3c-0.2-0.4-0.5-0.6-0.9-0.8c-0.4-0.2-0.7-0.4-1.1-0.5
			c-0.4-0.1-0.7-0.2-1-0.2L341.5,322.6z"/>
		<path class="st0" d="M372.5,289.7c-2.5,0-4.5,0.3-6.1,0.9c-1.6,0.6-2.6,1.2-3.2,1.7c-0.3-0.2-0.6-0.5-0.8-0.9
			c-0.2-0.4-0.4-0.8-0.4-1.3c0-0.5,0.1-0.9,0.4-1.3c0.2-0.4,0.5-0.7,0.9-0.9c0.4-0.4,1.4-0.8,2.9-1.2c1.5-0.4,3.5-0.7,6.1-0.7
			c5.3,0,9.4,1.1,12.3,3.3c2.9,2.2,4.4,5.7,4.4,10.5v19.9c-1.3,0.2-3.1,0.5-5.6,0.7c-2.4,0.2-5.2,0.4-8.2,0.4
			c-3.5,0-6.4-0.3-8.5-0.9c-2.2-0.6-3.8-1.4-5-2.4c-1.2-1-2-2.1-2.4-3.4c-0.4-1.2-0.6-2.5-0.6-3.7c0-1.6,0.2-3,0.7-4.4
			c0.5-1.3,1.3-2.4,2.5-3.4c1.2-0.9,2.8-1.7,4.8-2.2c2-0.5,4.5-0.8,7.5-0.8c1,0,2,0,3.1,0.1c1.1,0.1,2.1,0.1,3,0.2
			c1,0.1,1.8,0.1,2.6,0.2c0.8,0.1,1.4,0.2,1.8,0.2v-0.4c0-2-0.3-3.7-1-5.1c-0.7-1.3-1.6-2.4-2.7-3.2c-1.1-0.8-2.4-1.3-3.9-1.6
			C375.7,289.8,374.1,289.7,372.5,289.7z M384.8,304.1c-0.4-0.1-1.5-0.3-3.2-0.5c-1.7-0.3-4.2-0.4-7.5-0.4c-1.6,0-3.1,0.1-4.5,0.3
			c-1.3,0.2-2.5,0.6-3.4,1.2c-1,0.6-1.7,1.3-2.2,2.2c-0.5,0.9-0.8,2.1-0.8,3.5c0,2.4,0.9,4.2,2.8,5.3c1.9,1.1,5,1.7,9.4,1.7
			c2.9,0,5-0.1,6.5-0.4c1.4-0.2,2.4-0.4,2.9-0.6V304.1z M373.9,279.6c-0.5-0.2-1.1-0.3-1.6-0.5c-0.5-0.2-1-0.2-1.6-0.2
			c-0.8,0-1.4,0.2-1.8,0.7c-0.3,0.4-0.6,1.1-0.8,1.9l-3.4-0.5c0.1-0.7,0.3-1.4,0.6-2.2c0.3-0.7,0.7-1.4,1.1-2c0.5-0.6,1.1-1,1.8-1.4
			c0.7-0.4,1.6-0.5,2.5-0.5c0.9,0,1.7,0.1,2.5,0.3c0.8,0.2,1.5,0.4,2.1,0.6l1.4,0.5c0.4,0.1,1,0.3,1.6,0.5c0.6,0.2,1.2,0.3,1.8,0.3
			c0.8,0,1.4-0.2,1.7-0.6c0.4-0.4,0.6-1.1,0.9-1.9l3.4,0.5c-0.1,0.8-0.3,1.5-0.6,2.2c-0.3,0.7-0.7,1.4-1.2,1.9
			c-0.5,0.6-1.1,1-1.8,1.4c-0.7,0.4-1.5,0.5-2.5,0.5c-0.9,0-1.7-0.1-2.5-0.3c-0.8-0.2-1.5-0.4-2.1-0.6L373.9,279.6z"/>
		<path class="st0" d="M431.5,303.4c0,2.4-0.4,4.6-1.3,6.8c-0.9,2.1-2.1,3.9-3.7,5.5c-1.6,1.6-3.4,2.8-5.6,3.7
			c-2.2,0.9-4.5,1.4-7.1,1.4c-2.6,0-4.9-0.5-7.1-1.4c-2.2-0.9-4-2.2-5.6-3.7c-1.6-1.6-2.8-3.4-3.7-5.5c-0.9-2.1-1.3-4.4-1.3-6.8
			c0-2.4,0.4-4.7,1.3-6.8c0.9-2.1,2.1-3.9,3.7-5.5c1.6-1.6,3.4-2.8,5.6-3.7c2.2-0.9,4.5-1.3,7.1-1.3c2.6,0,4.9,0.4,7.1,1.3
			c2.2,0.9,4,2.1,5.6,3.7c1.6,1.6,2.8,3.4,3.7,5.5C431.1,298.7,431.5,300.9,431.5,303.4z M426.8,303.4c0-1.9-0.3-3.7-0.9-5.4
			c-0.6-1.7-1.5-3.1-2.7-4.4c-1.2-1.2-2.5-2.2-4.1-2.9c-1.6-0.7-3.4-1-5.3-1c-2,0-3.7,0.3-5.3,1c-1.6,0.7-3,1.7-4.1,2.9
			c-1.2,1.2-2,2.7-2.7,4.4c-0.6,1.7-0.9,3.4-0.9,5.4c0,1.9,0.3,3.6,1,5.3c0.6,1.7,1.5,3.1,2.7,4.3c1.1,1.2,2.5,2.2,4.1,2.9
			c1.6,0.7,3.4,1.1,5.3,1.1c2,0,3.7-0.4,5.3-1.1c1.6-0.7,3-1.7,4.1-2.9c1.2-1.2,2-2.7,2.7-4.3C426.5,307,426.8,305.2,426.8,303.4z"
			/>
	</g>
</g>
</svg>
